<svg width="136" height="110" viewBox="0 0 136 110" fill="none" xmlns="http://www.w3.org/2000/svg">
<path d="M133.31 27.7955C127.372 12.6846 109.078 3.62279 93.5843 9.61954C75.8985 16.4644 81.7624 44.5952 65.6982 50.2835C57.0205 53.3563 44.1924 41.8781 35.4252 40.1181C19.2696 36.8748 4.64429 48.2741 1.04295 64.0599C-2.63118 80.1648 3.26171 101.675 20.9561 106.046C42.0334 111.253 53.0125 92.3057 70.6941 86.8652C88.8389 81.282 109.014 94.4679 124.035 78.4247C135.133 66.5722 139.191 42.7586 133.31 27.7955Z" fill="#E8F3FC"/>
<path d="M126.662 27.4387C126.662 16.9471 118.157 8.44202 107.666 8.44202C99.5375 8.44202 92.605 13.5487 89.8927 20.7272H21.2002C18.2661 20.7272 15.8877 23.1056 15.8877 26.0397V84.8517C15.8877 87.7858 18.2661 90.1642 21.2002 90.1642H114.8C117.734 90.1642 120.112 87.7858 120.112 84.8517V41.7833C124.123 38.3001 126.662 33.1677 126.662 27.4387Z" fill="#FCFDFF"/>
<path d="M107.666 46.7949C118.157 46.7949 126.662 38.2897 126.662 27.7982C126.662 17.3066 118.157 8.80145 107.666 8.80145C97.1741 8.80145 88.6689 17.3066 88.6689 27.7982C88.6689 38.2897 97.1741 46.7949 107.666 46.7949Z" fill="#E8F3FC"/>
<path d="M107.666 48.123C118.873 48.123 127.99 39.0054 127.99 27.7982C127.99 16.5909 118.873 7.47333 107.666 7.47333C96.4584 7.47333 87.3408 16.5909 87.3408 27.7982C87.3408 34.3177 90.4298 40.1258 95.2174 43.8475L68.809 64.1338C68.3332 64.4998 67.6676 64.5001 67.1908 64.1338L17.2634 25.7813C17.5611 23.8767 19.2133 22.4147 21.1999 22.4147H82.1253C82.8589 22.4147 83.4534 21.82 83.4534 21.0866C83.4534 20.3532 82.8589 19.7585 82.1253 19.7585H21.2002C17.5386 19.7585 14.5596 22.7375 14.5596 26.3991V85.2111C14.5596 88.8728 17.5386 91.8518 21.2002 91.8518H114.8C118.461 91.8518 121.44 88.8728 121.44 85.2111V50.1114C121.44 49.3781 120.846 48.7833 120.112 48.7833C119.379 48.7833 118.784 49.3781 118.784 50.1114V82.5161L84.0117 55.8051L97.5427 45.4112C100.526 47.1325 103.981 48.123 107.666 48.123ZM51.988 55.8051L17.2158 82.5161V29.0941L51.988 55.8051ZM118.732 85.8255C118.435 87.7311 116.787 89.1955 114.8 89.1955H21.2002C19.2125 89.1955 17.5651 87.7311 17.2681 85.8255L54.1685 57.4799L65.5729 66.2402C66.2874 66.789 67.1438 67.0636 68.0001 67.0636C68.8565 67.0636 69.7126 66.7892 70.4274 66.2402L81.8318 57.4796L118.732 85.8255ZM89.9971 27.7982C89.9971 18.0558 97.9231 10.1296 107.666 10.1296C117.408 10.1296 125.334 18.0556 125.334 27.7982C125.334 37.5407 117.408 45.4667 107.666 45.4667C97.9231 45.4667 89.9971 37.5405 89.9971 27.7982Z" fill="#4E91F6" fill-opacity="0.7"/>
<path d="M99.3739 21.3198L102.085 27.7982L99.3739 34.2765C98.9136 35.3767 100.024 36.479 101.121 36.0105L117.488 29.0195C118.563 28.5602 118.563 27.0361 117.488 26.5768L101.121 19.5858C100.024 19.1173 98.9136 20.2196 99.3739 21.3198Z" fill="#FCFDFF"/>
<path d="M108.269 29.0381L100.107 32.5257L102.084 27.7976L100.105 23.0695L108.269 26.5571C109.287 26.9927 109.287 28.6051 108.269 29.0381Z" fill="#E8F3FC" fill-opacity="0.8"/>
<path d="M87.8762 8.69385C86.8897 8.69385 85.9034 8.31852 85.1528 7.5676C83.6509 6.06575 83.6509 3.62227 85.1528 2.12069C86.6538 0.619378 89.0978 0.618847 90.5994 2.12069C92.1012 3.62253 92.1012 6.06602 90.5994 7.5676C89.8487 8.31852 88.8625 8.69385 87.8762 8.69385ZM87.8762 3.64936C87.5702 3.64936 87.2639 3.76571 87.0307 3.99892C86.5648 4.46483 86.5648 5.22319 87.0307 5.68936C87.4972 6.15527 88.2547 6.15554 88.7212 5.68936C89.1871 5.22346 89.1871 4.4651 88.7212 3.99892C88.4882 3.76597 88.1819 3.64936 87.8762 3.64936Z" fill="#4E91F6" fill-opacity="0.3"/>
<path d="M58.0491 109.006C57.0628 109.006 56.0763 108.63 55.3256 107.879C53.8238 106.377 53.8238 103.934 55.3256 102.432C56.8269 100.931 59.2712 100.931 60.7725 102.432C62.2743 103.934 62.2743 106.378 60.7725 107.879C60.0218 108.63 59.0353 109.006 58.0491 109.006ZM58.0491 103.961C57.7431 103.961 57.4368 104.077 57.2036 104.311C56.7377 104.777 56.7377 105.535 57.2036 106.001C57.67 106.467 58.4278 106.467 58.8943 106.001C59.3602 105.535 59.3602 104.777 58.8943 104.311C58.6613 104.078 58.3551 103.961 58.0491 103.961Z" fill="#4E91F6" fill-opacity="0.3"/>
<path d="M78.3007 12.1141C77.961 12.1141 77.6207 11.9844 77.3617 11.7252L75.7773 10.141L74.1928 11.7252C73.6746 12.2437 72.8331 12.2437 72.3149 11.7252C71.7961 11.2064 71.7961 10.3654 72.3149 9.84694L74.8383 7.32351C75.3565 6.80501 76.198 6.80501 76.7163 7.32351L79.2397 9.84694C79.7585 10.3657 79.7585 11.2067 79.2397 11.7252C78.9807 11.9842 78.6407 12.1141 78.3007 12.1141Z" fill="#4E91F6" fill-opacity="0.3"/>
<path d="M116.808 103.961C116.468 103.961 116.128 103.831 115.869 103.572L114.284 101.987L112.7 103.572C112.181 104.09 111.34 104.09 110.822 103.572C110.303 103.053 110.303 102.212 110.822 101.693L113.345 99.17C113.863 98.6515 114.705 98.6515 115.223 99.17L117.747 101.693C118.265 102.212 118.265 103.053 117.747 103.572C117.488 103.831 117.147 103.961 116.808 103.961Z" fill="#4E91F6" fill-opacity="0.3"/>
<path d="M47.516 105.222C47.1763 105.222 46.836 105.093 46.5771 104.833L44.9926 103.249L43.4082 104.833C42.8899 105.352 42.0484 105.352 41.5302 104.833C41.0114 104.315 41.0114 103.474 41.5302 102.955L44.0536 100.432C44.5719 99.9132 45.4134 99.9132 45.9316 100.432L48.455 102.955C48.9738 103.474 48.9738 104.315 48.455 104.833C48.1958 105.092 47.8558 105.222 47.516 105.222Z" fill="#4E91F6" fill-opacity="0.3"/>
</svg>
