<svg width="27" height="27" viewBox="0 0 27 27" fill="none" xmlns="http://www.w3.org/2000/svg">
<path d="M22.5176 9.01758V6.75L13.5 12.3926L4.48242 6.75V9.01758L13.5 14.6074L22.5176 9.01758ZM22.5176 4.48242C23.1152 4.48242 23.625 4.71094 24.0469 5.16797C24.5039 5.625 24.7324 6.15234 24.7324 6.75V20.25C24.7324 20.8477 24.5039 21.375 24.0469 21.832C23.625 22.2891 23.1152 22.5176 22.5176 22.5176H4.48242C3.88477 22.5176 3.35742 22.2891 2.90039 21.832C2.47852 21.375 2.26758 20.8477 2.26758 20.25V6.75C2.26758 6.15234 2.47852 5.625 2.90039 5.16797C3.35742 4.71094 3.88477 4.48242 4.48242 4.48242H22.5176Z" fill="#96B4FC"/>
</svg>
