<svg width="27" height="27" viewBox="0 0 27 27" fill="none" xmlns="http://www.w3.org/2000/svg">
<path d="M7.11914 19.8809C8.91211 21.6387 11.0391 22.5176 13.5 22.5176C15.9609 22.5176 18.0703 21.6387 19.8281 19.8809C21.6211 18.0879 22.5176 15.9609 22.5176 13.5C22.5176 12.7266 22.3945 11.8828 22.1484 10.9688C21.4805 11.1445 20.6367 11.2324 19.6172 11.2324C15.75 11.2324 12.6914 9.65039 10.4414 6.48633C9.28125 9.29883 7.3125 11.3203 4.53516 12.5508C4.5 12.7617 4.48242 13.0781 4.48242 13.5C4.48242 15.9609 5.36133 18.0879 7.11914 19.8809ZM5.53711 5.58984C7.75195 3.375 10.4062 2.26758 13.5 2.26758C16.5938 2.26758 19.2305 3.375 21.4102 5.58984C23.625 7.76953 24.7324 10.4062 24.7324 13.5C24.7324 16.5938 23.625 19.248 21.4102 21.4629C19.2305 23.6426 16.5938 24.7324 13.5 24.7324C10.4062 24.7324 7.75195 23.6426 5.53711 21.4629C3.35742 19.248 2.26758 16.5938 2.26758 13.5C2.26758 10.4062 3.35742 7.76953 5.53711 5.58984ZM15.873 13.6582C16.1543 13.377 16.4883 13.2363 16.875 13.2363C17.2617 13.2363 17.5957 13.377 17.877 13.6582C18.1582 13.9043 18.2988 14.2207 18.2988 14.6074C18.2988 14.9941 18.1582 15.3281 17.877 15.6094C17.5957 15.8906 17.2617 16.0312 16.875 16.0312C16.4883 16.0312 16.1543 15.8906 15.873 15.6094C15.5918 15.3281 15.4512 14.9941 15.4512 14.6074C15.4512 14.2207 15.5918 13.9043 15.873 13.6582ZM9.12305 13.6582C9.4043 13.377 9.73828 13.2363 10.125 13.2363C10.5117 13.2363 10.8457 13.377 11.127 13.6582C11.4082 13.9043 11.5488 14.2207 11.5488 14.6074C11.5488 14.9941 11.4082 15.3281 11.127 15.6094C10.8457 15.8906 10.5117 16.0312 10.125 16.0312C9.73828 16.0312 9.4043 15.8906 9.12305 15.6094C8.8418 15.3281 8.70117 14.9941 8.70117 14.6074C8.70117 14.2207 8.8418 13.9043 9.12305 13.6582Z" fill="#96B4FC"/>
</svg>
