<svg width="27" height="27" viewBox="0 0 27 27" fill="none" xmlns="http://www.w3.org/2000/svg">
<path d="M7.43555 12.1289C9.12305 15.3984 11.6016 17.877 14.8711 19.5645L17.3496 17.0859C17.7012 16.7344 18.0879 16.6465 18.5098 16.8223C19.7754 17.2441 21.1113 17.4551 22.5176 17.4551C22.834 17.4551 23.0977 17.5605 23.3086 17.7715C23.5195 17.9824 23.625 18.2461 23.625 18.5625V22.5176C23.625 22.834 23.5195 23.0977 23.3086 23.3086C23.0977 23.5195 22.834 23.625 22.5176 23.625C17.2441 23.625 12.7266 21.7617 8.96484 18.0352C5.23828 14.2734 3.375 9.75586 3.375 4.48242C3.375 4.16602 3.48047 3.90234 3.69141 3.69141C3.90234 3.48047 4.16602 3.375 4.48242 3.375H8.4375C8.75391 3.375 9.01758 3.48047 9.22852 3.69141C9.43945 3.90234 9.54492 4.16602 9.54492 4.48242C9.54492 5.88867 9.75586 7.22461 10.1777 8.49023C10.3184 8.94727 10.2305 9.33398 9.91406 9.65039L7.43555 12.1289Z" fill="#96B4FC"/>
</svg>
