<svg width="52" height="64" viewBox="0 0 52 64" fill="none" xmlns="http://www.w3.org/2000/svg">
<g clip-path="url(#clip0)">
<g opacity="0.4">
<path d="M42.5996 53.9442L38.0375 55.8679C38.0375 55.8679 38.9028 57.9199 39.0635 58.4569C39.4381 59.7086 39.0866 60.2597 38.9297 60.5273C38.5197 61.2263 37.6046 61.6844 37.2647 61.8337C36.9247 61.9829 35.8587 62.3685 34.9959 62.186C34.7747 62.1392 33.6433 61.8447 33.1763 60.7374C27.8927 48.2097 19.7584 28.6113 19.7584 28.6113L21.6819 27.8054L23.6828 26.9737L25.6159 26.1717L32.6416 42.8333L36.9475 41.0176L37.2091 42.116L38.7855 43.4657L38.2724 43.6821L41.4457 51.2076L41.6806 52.7202L42.5996 53.9442ZM39.7353 51.9288L41.4457 51.2076L38.2724 43.6821L36.7331 44.3311L33.7103 45.6057L34.72 48.0002L46.1235 43.1918L47.1064 46.0005L35.8739 50.7368L36.8836 53.1313L39.7353 51.9288Z" fill="#4E91F6"/>
<path d="M25.0899 24.9607L23.1568 25.7628L21.1694 26.5886L19.2363 27.3907L18.2666 25.0546C11.1547 26.214 3.2455 26.1374 0.35308 19.3035C-2.53925 12.4697 4.58872 4.93733 11.4955 2.01414C18.0656 -0.766513 28.3947 -0.389292 31.1595 6.26488C33.6372 12.1745 29.3287 18.8916 24.1202 22.6246L25.0899 24.9607ZM24.8668 7.77229C23.9 5.43066 21.5805 4.58321 19.2354 3.6247L16.64 3.9064L9.73312 6.82967C7.27779 10.6364 6.16185 15.0805 9.40071 18.2474C12.6396 21.4143 17.6599 21.8644 21.4104 19.3242C25.1611 16.7839 26.6058 11.955 24.8668 7.77229ZM18.6648 22.8404C18.7404 22.822 18.8183 22.8151 18.8959 22.8196L18.8973 22.8196C18.8192 22.8149 18.7408 22.8218 18.6648 22.8404ZM27.0114 15.5462C26.1406 17.8733 24.5257 19.9368 22.2736 21.3483L22.2745 21.3478C24.5262 19.9362 26.1406 17.8729 27.0114 15.5462Z" fill="#4E91F6"/>
<path d="M28.1445 7.99802C30.5124 13.5927 25.021 19.093 19.6806 21.3532C14.3402 23.6135 6.10825 23.9216 3.74035 18.3269C1.37244 12.7322 7.32438 7.03708 12.6647 4.77681C18.0051 2.51654 25.7766 2.40335 28.1445 7.99802Z" fill="white"/>
<circle r="2.34114" transform="matrix(0.388537 0.921433 0.921433 -0.388537 39.3341 41.4209)" stroke="#4E91F6" stroke-width="2"/>
<circle r="2.34114" transform="matrix(0.388537 0.921433 0.921433 -0.388537 48.8255 43.865)" stroke="#4E91F6" stroke-width="2"/>
<circle r="2.34114" transform="matrix(0.388537 0.921433 0.921433 -0.388537 43.8055 52.0251)" stroke="#4E91F6" stroke-width="2"/>
</g>
<rect x="22.6101" y="31.2286" width="3.109" height="31.6847" transform="rotate(-22.4187 22.6101 31.2286)" fill="white"/>
</g>
<defs>
<clipPath id="clip0">
<rect width="52" height="64" fill="white"/>
</clipPath>
</defs>
</svg>
