<svg width="70" height="65" viewBox="0 0 70 65" fill="none" xmlns="http://www.w3.org/2000/svg">
<g opacity="0.15">
<path d="M67.2926 3.25098C67.2571 3.26322 63.6262 4.50354 55.3834 7.22524C52.5809 8.15052 50.3579 9.38139 48.7214 10.8993C48.7994 10.8181 48.8684 10.7365 48.9495 10.6553L56.9262 2.66522C57.4949 2.09558 57.5549 1.15769 57.001 0.573413C56.4325 -0.0260726 55.4862 -0.0353443 54.9062 0.545784L46.8817 8.58368C41.6349 13.8392 41.6646 19.8973 46.9628 25.2046C48.5811 26.8256 49.5532 28.394 49.9003 29.9252C49.9062 29.9545 49.9136 29.9827 49.921 30.0113C50.3731 32.1504 49.5913 34.2171 47.5615 36.2503L46.6718 37.1415C46.6694 37.1439 46.669 37.1478 46.6711 37.1506L47.4228 38.1612C47.5452 38.3256 50.4826 42.1985 55.9253 42.8888L57.7228 43.1167C57.7272 43.1173 57.7309 43.1136 57.7306 43.1091L57.5652 41.3017C57.5586 41.2292 57.3983 39.4957 57.033 37.0836C56.8914 36.1476 56.705 35.3052 56.4771 34.5516C56.4747 34.544 56.4849 34.5388 56.4893 34.5455C56.9336 35.2186 57.3727 36.1109 57.7759 37.1843C58.6012 39.3811 59.1106 41.0197 59.1158 41.036C59.3551 41.8083 60.1743 42.2404 60.9457 42.0006C61.1802 41.9277 61.3833 41.8013 61.5456 41.6385C61.9172 41.2663 62.0754 40.7054 61.9088 40.1679C61.8874 40.0981 61.3709 38.436 60.5131 36.1526C60.3187 35.6349 60.1151 35.1547 59.9046 34.7042C59.9012 34.6972 59.9111 34.6918 59.9164 34.6974C61.9355 36.8237 62.8481 38.3661 62.8594 38.3855C63.2634 39.0861 64.1577 39.3256 64.8572 38.9212C64.9707 38.8554 65.0721 38.7768 65.1606 38.6881C65.6171 38.2309 65.7302 37.507 65.392 36.9201C65.3108 36.7794 63.3492 33.4259 58.7587 29.623L58.2974 29.2403C57.6391 28.6934 57.09 28.2382 56.6073 27.8763C56.6402 27.8909 56.6785 27.908 56.7063 27.9204C61.6271 30.1188 64.1714 32.5635 64.1939 32.5854C64.7673 33.1481 65.6852 33.1426 66.2515 32.5754L66.2619 32.565C66.8272 31.9872 66.818 31.0599 66.2415 30.4936C66.1255 30.3797 63.3381 27.6758 57.8977 25.2451C57.3459 24.9984 56.8411 24.7772 56.3727 24.5877C56.4558 24.6022 56.5349 24.615 56.6221 24.6307C62.4651 25.6873 63.5786 25.9706 63.6147 25.9797C64.1386 26.1214 64.673 25.9591 65.031 25.6005C65.2058 25.4255 65.3385 25.2035 65.4076 24.9474C65.6181 24.1664 65.1565 23.3622 64.377 23.1516C64.268 23.1221 63.1401 22.8326 57.1419 21.7479C54.3836 21.2491 52.4166 21.1612 51.1348 22.2619C51.0463 22.3381 50.9634 22.4171 50.8858 22.4991C51.1194 21.7683 51.5054 21.1621 52.0469 20.6887C53.8172 19.1375 57.3433 18.9099 61.9759 20.0483C62.4912 20.1747 63.0097 20.0108 63.3592 19.6604C63.5766 19.4427 63.7287 19.1528 63.7743 18.8167C63.8763 18.0651 63.3526 17.3688 62.6169 17.1894C56.9777 15.8139 52.6576 16.2611 50.1211 18.4838C49.8142 18.7531 49.5385 19.0473 49.2888 19.3613C49.3345 19.0905 49.3991 18.825 49.4954 18.5706C50.4845 15.9539 54.008 15.1992 56.79 15.0273L64.7382 14.5361C64.7574 14.535 64.7765 14.5337 64.7954 14.5322C64.942 14.5231 65.056 14.5161 65.0749 14.5151L65.074 14.4992C65.5544 14.4209 65.8711 14.2479 66.0786 14.0402C66.4363 13.682 66.4687 13.2203 66.4527 12.9627C66.4492 12.9051 66.3515 11.5954 64.8954 11.5958L64.8952 11.5913C64.8854 11.5919 64.8487 11.5943 64.7776 11.5985C64.7645 11.5991 64.7511 11.5998 64.7378 11.6008L63.84 11.656V11.6569C62.7232 11.7259 60.559 11.8596 56.61 12.1036C53.598 12.2896 51.4627 12.9685 49.9484 13.8652C49.9417 13.8691 49.9345 13.8606 49.9395 13.8546C51.2603 12.2575 53.3901 10.9677 56.2998 10.0068C64.5603 7.27939 68.2025 6.03498 68.2384 6.02293C69.0022 5.76111 69.4106 4.9291 69.1499 4.16347C68.888 3.3984 68.057 2.98972 67.2926 3.25098Z" fill="#4E91F6"/>
<path d="M0.111368 4.16265C-0.149278 4.92828 0.259092 5.76029 1.02289 6.02211C1.0588 6.03416 4.70099 7.27856 12.9615 10.006C15.8712 10.9669 18.001 12.2567 19.3218 13.8538C19.3268 13.8597 19.3197 13.8685 19.3129 13.8644C17.7986 12.9678 15.6633 12.2888 12.6512 12.1028C8.70231 11.8588 6.5381 11.7251 5.42129 11.6561V11.6552L4.52346 11.5999C4.51014 11.5992 4.49681 11.5985 4.48366 11.5977C4.41258 11.5933 4.37593 11.591 4.36611 11.5905L4.36593 11.5949C2.90979 11.5946 2.81205 12.9042 2.80853 12.9619C2.79261 13.2195 2.82501 13.6812 3.18266 14.0394C3.39017 14.2473 3.70691 14.4201 4.18729 14.4984L4.18637 14.5143C4.20525 14.5152 4.31928 14.5223 4.46589 14.5314C4.48478 14.5327 4.50384 14.5341 4.52309 14.5353L12.4713 15.0265C15.2533 15.1983 18.7768 15.9532 19.7659 18.5698C19.8621 18.8242 19.9266 19.0897 19.9725 19.3604C19.7227 19.0465 19.4471 18.7522 19.1402 18.483C16.6037 16.2601 12.2834 15.8128 6.64436 17.1885C5.9087 17.368 5.385 18.0643 5.487 18.8158C5.53273 19.1522 5.68471 19.4418 5.90204 19.6595C6.25172 20.01 6.77005 20.1739 7.28542 20.0474C11.918 18.9091 15.4443 19.1366 17.2144 20.6879C17.7559 21.1613 18.1418 21.7675 18.3755 22.4982C18.2979 22.4163 18.2151 22.3373 18.1265 22.2611C16.8447 21.1604 14.8777 21.2483 12.1194 21.7471C6.12121 22.8318 4.99329 23.1213 4.88426 23.1508C4.10454 23.3614 3.64323 24.1656 3.85371 24.9466C3.92276 25.2027 4.05549 25.4246 4.23024 25.5997C4.58826 25.9583 5.12269 26.1206 5.64657 25.9789C5.68267 25.9696 6.79615 25.6865 12.6392 24.6299C12.7264 24.6141 12.8054 24.6012 12.8886 24.5869C12.4202 24.7762 11.9154 24.9976 11.3636 25.2442C5.92314 27.675 3.13582 30.3789 3.01975 30.4927C2.44311 31.059 2.43404 31.9864 2.99939 32.5641L3.00976 32.5745C3.57603 33.1418 4.49403 33.1473 5.06734 32.5845C5.08993 32.5627 7.63418 30.1182 12.555 27.9196C12.5829 27.9071 12.6211 27.8901 12.654 27.8754C12.171 28.2372 11.622 28.6926 10.9639 29.2394L10.5026 29.6222C5.91203 33.4251 3.95053 36.7785 3.86926 36.9193C3.53105 37.506 3.64416 38.2301 4.10066 38.6873C4.18914 38.776 4.29059 38.8546 4.40406 38.9204C5.10344 39.325 5.99774 39.0852 6.40185 38.3847C6.41315 38.3652 7.32578 36.8229 9.34486 34.6966C9.35022 34.6908 9.36004 34.6962 9.3567 34.7034C9.14604 35.154 8.94259 35.6343 8.74822 36.1518C7.89039 38.4351 7.37391 40.0973 7.35243 40.167C7.18601 40.7046 7.34429 41.2655 7.71564 41.6376C7.87798 41.8005 8.08087 41.9269 8.3156 41.9998C9.08699 42.2395 9.90613 41.8075 10.1455 41.0352C10.1505 41.0189 10.6601 39.3801 11.4854 37.1835C11.8886 36.1101 12.3277 35.2176 12.7719 34.5447C12.7764 34.538 12.7866 34.5432 12.7842 34.5508C12.5563 35.3042 12.3699 36.1466 12.2282 37.0828C11.8632 39.4947 11.7027 41.2284 11.696 41.3009L11.5307 43.1083C11.5304 43.1127 11.5341 43.1164 11.5385 43.1159L13.336 42.888C18.7786 42.1976 21.7163 38.3248 21.8385 38.1603L22.5902 37.1498C22.5923 37.147 22.5921 37.1431 22.5895 37.1407L21.6998 36.2495C19.67 34.2163 18.8882 32.1495 19.3403 30.0104C19.3479 29.9819 19.3553 29.9537 19.361 29.9244C19.7079 28.3932 20.68 26.825 22.2985 25.2038C27.5969 19.8965 27.6265 13.8386 22.3796 8.58286L14.4028 0.592806C13.8341 0.0231735 12.8978 -0.0369048 12.3145 0.517893C11.716 1.08734 11.7068 2.03524 12.2869 2.61619L20.3114 10.6541C20.3925 10.7353 20.4615 10.8169 20.5395 10.8981C18.903 9.3802 16.6798 8.14915 13.8775 7.22405C5.63436 4.50216 2.00346 3.26184 1.96773 3.24961C1.20338 2.98834 0.372384 3.39702 0.111368 4.16265Z" fill="#4E91F6"/>
</g>
<g opacity="0.2">
<path d="M34.7253 30.3516C26.6782 30.2814 20.0742 36.771 20.0039 44.8182C19.9337 52.8653 26.4233 59.4693 34.4705 59.5396C42.5176 59.6098 49.1216 53.1201 49.1919 45.073C49.2621 37.0258 42.7725 30.4219 34.7253 30.3516ZM34.4901 57.2943C27.681 57.2349 22.1897 51.6468 22.2492 44.8378C22.3086 38.0287 27.8967 32.5374 34.7057 32.5968C41.5148 32.6563 47.0061 38.2443 46.9466 45.0534C46.8872 51.8625 41.2991 57.3538 34.4901 57.2943Z" fill="#4E91F6"/>
<path d="M33.2454 44.7776L38.1959 43.8326L37.7748 41.6268L33.9604 42.3555L35.753 36.2825L33.5997 35.6468L31.4796 42.8291L26.5291 43.7741L26.9501 45.9799L30.7646 45.2512L28.5505 52.7517L40.1424 52.8529L40.162 50.6076L31.5468 50.5324L33.2454 44.7776Z" fill="#4E91F6"/>
</g>
</svg>
