<svg width="229" height="213" viewBox="0 0 229 213" fill="none" xmlns="http://www.w3.org/2000/svg">
	<g filter="url(#filter0_d)">
		<path d="M218.817 10.0101C218.704 10.0492 207.107 14.0105 180.781 22.7031C171.831 25.6583 164.731 29.5894 159.504 34.4373C159.753 34.1779 159.974 33.9174 160.233 33.658L185.709 8.13927C187.525 6.31998 187.717 3.32454 185.948 1.45846C184.132 -0.45618 181.11 -0.485792 179.257 1.37022L153.629 27.0417C136.871 43.8269 136.966 63.1753 153.888 80.1258C159.056 85.3029 162.161 90.3119 163.269 95.2025C163.288 95.296 163.312 95.3861 163.335 95.4773C164.779 102.309 162.282 108.91 155.8 115.404L152.958 118.25C152.95 118.258 152.949 118.27 152.956 118.279L155.357 121.506C155.748 122.032 165.129 134.401 182.512 136.606L188.253 137.333C188.267 137.335 188.279 137.323 188.278 137.309L187.75 131.537C187.728 131.305 187.216 125.769 186.05 118.065C185.598 115.076 185.002 112.385 184.274 109.978C184.267 109.954 184.299 109.937 184.313 109.959C185.732 112.109 187.135 114.958 188.422 118.387C191.058 125.403 192.685 130.636 192.702 130.688C193.466 133.155 196.082 134.535 198.546 133.769C199.295 133.536 199.944 133.132 200.462 132.612C201.649 131.424 202.154 129.632 201.622 127.915C201.554 127.693 199.904 122.384 197.164 115.092C196.544 113.438 195.893 111.904 195.221 110.466C195.21 110.443 195.242 110.426 195.259 110.444C201.707 117.235 204.622 122.161 204.658 122.223C205.948 124.46 208.805 125.226 211.039 123.934C211.401 123.724 211.725 123.473 212.008 123.19C213.466 121.729 213.827 119.417 212.747 117.543C212.487 117.093 206.223 106.383 191.561 94.2372L190.088 93.0148C187.986 91.2684 186.232 89.8145 184.69 88.6585C184.795 88.7052 184.918 88.7597 185.006 88.7994C200.722 95.8207 208.848 103.629 208.92 103.698C210.751 105.496 213.683 105.478 215.492 103.666L215.525 103.633C217.331 101.788 217.301 98.8263 215.46 97.0176C215.089 96.654 206.187 88.0183 188.812 80.2549C187.049 79.4672 185.437 78.7607 183.941 78.1555C184.206 78.2017 184.459 78.2425 184.737 78.2929C203.399 81.6673 206.955 82.5722 207.07 82.6012C208.744 83.0537 210.451 82.5355 211.594 81.3902C212.152 80.8311 212.576 80.1222 212.797 79.3044C213.469 76.8099 211.995 74.2415 209.505 73.5687C209.157 73.4746 205.555 72.5501 186.398 69.0856C177.588 67.4926 171.306 67.2119 167.212 70.7273C166.929 70.9707 166.665 71.223 166.417 71.4847C167.163 69.1508 168.396 67.2148 170.125 65.7029C175.779 60.7484 187.041 60.0217 201.836 63.6574C203.482 64.0613 205.138 63.5377 206.255 62.4184C206.949 61.7232 207.435 60.7975 207.58 59.7239C207.906 57.3236 206.233 55.0998 203.884 54.5265C185.873 50.1335 172.076 51.5619 163.975 58.6608C162.994 59.5207 162.114 60.4606 161.316 61.4632C161.462 60.5986 161.669 59.7505 161.976 58.938C165.135 50.5806 176.389 48.1703 185.274 47.6213L210.659 46.0525C210.72 46.0489 210.781 46.0448 210.841 46.0401C211.31 46.011 211.674 45.9885 211.734 45.9856L211.731 45.9346C213.265 45.6847 214.277 45.1322 214.94 44.4689C216.082 43.3247 216.185 41.8501 216.135 41.0275C216.123 40.8433 215.811 36.6605 211.161 36.6617L211.16 36.6475C211.129 36.6493 211.012 36.6569 210.785 36.6706C210.743 36.6723 210.7 36.6747 210.657 36.6777L207.79 36.8542V36.8571C204.223 37.0774 197.311 37.5044 184.699 38.2838C175.079 38.8778 168.259 41.0459 163.423 43.9099C163.402 43.9223 163.379 43.895 163.395 43.8761C167.613 38.7753 174.415 34.6558 183.708 31.587C210.09 22.876 221.723 18.9017 221.838 18.8632C224.277 18.027 225.581 15.3697 224.749 12.9244C223.912 10.4809 221.258 9.17566 218.817 10.0101Z" fill="#E8F3FC" />
		<path d="M4.2512 12.9271C3.41875 15.3724 4.72301 18.0297 7.16242 18.8659C7.27712 18.9044 18.9096 22.8788 45.292 31.5897C54.585 34.6586 61.3871 38.778 65.6055 43.8788C65.6215 43.8978 65.599 43.9256 65.5771 43.9126C60.7409 41.0492 53.921 38.8805 44.3011 38.2865C31.689 37.5071 24.7769 37.0801 21.21 36.8598V36.8569L18.3426 36.6804C18.3 36.678 18.2574 36.6757 18.2155 36.6733C17.9884 36.6591 17.8714 36.652 17.84 36.6502L17.8394 36.6644C13.1888 36.6632 12.8767 40.8461 12.8654 41.0302C12.8146 41.8528 12.918 43.3275 14.0603 44.4716C14.7231 45.1355 15.7347 45.6874 17.2689 45.9374L17.266 45.9883C17.3263 45.9913 17.6905 46.0138 18.1587 46.0428C18.219 46.0469 18.2799 46.0517 18.3414 46.0552L43.7265 47.624C52.6115 48.173 63.8649 50.5839 67.0239 58.9407C67.3313 59.7532 67.5371 60.6013 67.6837 61.4659C66.8861 60.4633 66.0058 59.5234 65.0255 58.6635C56.9245 51.564 43.1264 50.1356 25.1163 54.5293C22.7668 55.1025 21.0942 57.3263 21.4199 59.7266C21.566 60.8008 22.0514 61.7259 22.7455 62.4212C23.8623 63.5405 25.5177 64.064 27.1637 63.6601C41.9593 60.0245 53.2216 60.7511 58.875 65.7056C60.6043 67.2175 61.837 69.1535 62.5831 71.4874C62.3354 71.2257 62.0711 70.9734 61.7879 70.73C57.6943 67.2146 51.4118 67.4953 42.6025 69.0883C23.4455 72.5528 19.8431 73.4773 19.4949 73.5714C17.0046 74.2442 15.5313 76.8127 16.2035 79.3071C16.424 80.1249 16.848 80.8338 17.4061 81.3929C18.5495 82.5382 20.2564 83.0564 21.9296 82.604C22.0449 82.5743 25.6011 81.67 44.2627 78.2956C44.5412 78.2452 44.7936 78.2038 45.0591 78.1582C43.5633 78.7628 41.951 79.4699 40.1885 80.2576C22.8129 88.021 13.9107 96.6567 13.54 97.0203C11.6983 98.8289 11.6694 101.791 13.475 103.636L13.5081 103.669C15.3167 105.481 18.2486 105.499 20.0796 103.701C20.1517 103.631 28.2776 95.824 43.9937 88.8021C44.083 88.7624 44.2048 88.7079 44.31 88.6612C42.7675 89.8166 41.0139 91.2711 38.9121 93.0175L37.4387 94.2399C22.7774 106.386 16.5127 117.096 16.2532 117.545C15.173 119.419 15.5342 121.732 16.9922 123.192C17.2748 123.475 17.5988 123.726 17.9612 123.937C20.1949 125.229 23.0511 124.463 24.3418 122.226C24.3779 122.164 27.2926 117.237 33.7412 110.447C33.7583 110.428 33.7896 110.445 33.779 110.468C33.1062 111.907 32.4564 113.441 31.8356 115.094C29.0959 122.387 27.4463 127.695 27.3778 127.918C26.8462 129.635 27.3517 131.426 28.5378 132.615C29.0563 133.135 29.7042 133.539 30.4539 133.772C32.9176 134.537 35.5338 133.157 36.2982 130.691C36.3142 130.639 37.9419 125.405 40.5776 118.389C41.8653 114.961 43.2677 112.111 44.6866 109.961C44.7008 109.94 44.7333 109.957 44.7256 109.981C43.9978 112.387 43.4025 115.078 42.9502 118.068C41.7843 125.771 41.2717 131.308 41.2504 131.54L40.7224 137.312C40.7212 137.326 40.7331 137.338 40.7472 137.336L46.4881 136.608C63.8708 134.404 73.2531 122.034 73.6433 121.509L76.0443 118.282C76.0508 118.273 76.0502 118.26 76.0419 118.253L73.2005 115.406C66.7176 108.913 64.2209 102.312 65.6646 95.48C65.6889 95.3888 65.7125 95.2987 65.7309 95.2052C66.8388 90.3146 69.9434 85.3062 75.1125 80.1285C92.0347 63.178 92.1293 43.8302 75.3715 27.0444L49.8954 1.52574C48.0791 -0.293553 45.0886 -0.485432 43.2257 1.28648C41.3142 3.10519 41.2847 6.13261 43.1376 7.98803L68.7662 33.6595C69.0252 33.9189 69.2457 34.1795 69.4946 34.4389C64.2682 29.591 57.1675 25.6592 48.2174 22.7046C21.8906 14.0115 10.2942 10.0501 10.1801 10.011C7.73887 9.17661 5.08484 10.4819 4.2512 12.9271Z" fill="#E8F3FC" />
		<path d="M122.051 103.125H105.292C95.6304 103.125 87.1037 107.999 82.0333 115.427C78.9424 119.954 77.1338 125.43 77.1338 131.329V146.953C77.1338 162.529 89.74 175.156 105.292 175.156H122.051V103.125Z" fill="#F39E22" />
		<path d="M77.1323 135.302H106.822V142.976H77.1323V135.302Z" fill="#EA792E" />
		<path d="M77.1323 135.302H106.822V138.314H77.1323V135.302Z" fill="#DD5E26" />
		<path d="M106.822 147.795V155.467H78.4411C77.9634 153.964 77.6128 152.407 77.3964 150.805C77.2598 149.818 77.1752 148.814 77.1475 147.795H106.822Z" fill="#EA792E" />
		<path d="M106.822 147.795V150.805H77.3964C77.2598 149.818 77.1752 148.814 77.1475 147.795H106.822Z" fill="#DD5E26" />
		<path d="M114.038 160.285V167.959H86.5052C84.9509 166.566 83.5526 165.001 82.3412 163.294C81.6571 162.335 81.0328 161.329 80.4729 160.285H114.038Z" fill="#EA792E" />
		<path d="M114.038 160.285V163.294H82.3412C81.6571 162.335 81.0328 161.329 80.4729 160.285H114.038Z" fill="#DD5E26" />
		<path d="M118.848 172.778V175.155H105.292C101.26 175.155 97.4292 174.308 93.9617 172.778H118.848Z" fill="#EA792E" />
		<path d="M118.848 172.778V175.155H105.292C101.26 175.155 97.4292 174.308 93.9617 172.778H118.848Z" fill="#DD5E26" />
		<path d="M106.822 122.812V130.484H77.1448C77.1921 128.892 77.3688 127.337 77.6698 125.822C77.7342 125.493 77.804 125.167 77.8838 124.84L78.4407 122.811H106.822V122.812Z" fill="#EA792E" />
		<path d="M106.822 122.812V125.822H77.6699C77.7344 125.493 77.8041 125.167 77.884 124.84L78.4409 122.812H106.822V122.812Z" fill="#DD5E26" />
		<path d="M114.309 110.319V117.993H80.4705C80.9458 117.106 81.4679 116.249 82.0325 115.424C82.5273 114.702 83.0547 114.002 83.6123 113.329C84.5003 112.255 85.4681 111.249 86.5051 110.319H114.309Z" fill="#EA792E" />
		<path d="M114.309 110.319V113.329H83.6125C84.5006 112.255 85.4684 111.249 86.5054 110.319H114.309Z" fill="#DD5E26" />
		<path d="M120.099 104.28V105.501H93.9617C97.4269 103.971 101.26 103.124 105.292 103.124H112.1C114.879 103.124 117.565 103.527 120.099 104.28Z" fill="#EA792E" />
		<path d="M151.865 131.327V146.952C151.865 149.327 151.572 151.633 151.018 153.837C147.951 166.084 136.887 175.155 123.706 175.155H116.897C101.345 175.155 88.7385 162.528 88.7385 146.952V131.327C88.7385 125.429 90.5471 119.953 93.6381 115.425C98.7084 107.998 107.235 103.123 116.897 103.123H123.706C139.259 103.124 151.865 115.751 151.865 131.327Z" fill="#F9C744" />
		<path d="M151.865 131.327V146.952C151.865 149.327 151.572 151.633 151.018 153.837C146.862 155.259 142.451 156.023 137.881 156.023C116.041 156.023 97.823 138.589 93.6377 115.426C98.7081 107.998 107.235 103.124 116.897 103.124H123.706C139.259 103.124 151.865 115.751 151.865 131.327Z" fill="#FAD98F" />
		<path d="M131.632 116.802C129.94 117.872 129.435 120.113 130.503 121.808L136.858 131.893C137.926 133.588 140.164 134.095 141.855 133.025C143.547 131.955 144.053 129.714 142.985 128.02L136.629 117.934C135.562 116.239 133.324 115.732 131.632 116.802Z" fill="#FAEFDC" />
		<path d="M123.408 106.275H117.195C108.378 106.275 100.597 110.723 95.9706 117.501C93.1505 121.631 91.4998 126.629 91.4998 132.011V146.268C91.4998 160.481 103.003 172.003 117.195 172.003H123.408C135.436 172.003 145.532 163.726 148.331 152.55C148.835 150.539 149.103 148.435 149.103 146.267V132.01C149.103 117.797 137.6 106.275 123.408 106.275ZM148.026 146.001C148.026 148.087 147.768 150.113 147.282 152.049C144.589 162.806 134.87 170.774 123.293 170.774H117.312C103.651 170.774 92.5782 159.683 92.5782 146.001V132.277C92.5782 127.096 94.1668 122.286 96.8817 118.31C101.335 111.785 108.825 107.504 117.312 107.504H123.293C136.954 107.504 148.026 118.595 148.026 132.277V146.001Z" fill="#DD5E26" />
		<path d="M123.292 107.505H117.311C108.824 107.505 101.335 111.786 96.881 118.31C94.166 122.286 92.5774 127.097 92.5774 132.278V146.002C92.5774 159.683 103.65 170.775 117.311 170.775H123.292C134.869 170.775 144.588 162.807 147.282 152.05C147.768 150.113 148.025 148.089 148.025 146.002V132.278C148.026 118.596 136.953 107.505 123.292 107.505ZM145.465 145.367C145.465 147.261 145.231 149.1 144.79 150.857C142.345 160.62 133.524 167.852 123.016 167.852H117.587C105.188 167.852 95.138 157.785 95.138 145.367V132.911C95.138 128.209 96.58 123.843 99.0443 120.234C103.086 114.313 109.884 110.427 117.587 110.427H123.016C135.414 110.427 145.465 120.494 145.465 132.911V145.367Z" fill="#EA792E" />
		<path d="M138.037 153.164V156.289C138.037 157.949 136.691 159.293 135.035 159.293H110.956C108.905 159.293 107.345 157.447 107.684 155.421L109.023 147.417L101.932 150.004C100.744 150.437 99.43 149.824 98.9947 148.631L98.1836 146.396C98.1339 146.256 98.0966 146.116 98.0748 145.973C97.9039 144.911 98.5036 143.84 99.554 143.454L107.584 140.528L110.341 139.523L113.706 119.395L113.803 118.822C114.048 117.356 115.316 116.282 116.798 116.282H123.011C124.891 116.282 126.317 117.972 126.009 119.827L123.517 134.72L130.003 132.354C131.19 131.921 132.505 132.534 132.937 133.727L133.751 135.962C134.183 137.151 133.571 138.468 132.38 138.903L130.752 139.498L122.199 142.614L121.845 144.721L121.46 147.034C121.186 148.672 122.445 150.16 124.098 150.16H135.034C136.691 150.16 138.037 151.505 138.037 153.164Z" fill="#DD5E26" />
		<path d="M131.927 153.272H120.991C119.338 153.272 118.079 151.785 118.352 150.147L118.992 146.324L119.445 143.617L122.2 142.614L130.752 139.498C130.73 139.355 130.693 139.215 130.643 139.074L129.829 136.839C129.397 135.647 128.083 135.034 126.895 135.467L120.41 137.832L122.902 122.94C123.21 121.085 121.783 119.395 119.903 119.395H113.706L110.341 139.523L109.988 141.632L107.233 142.635L98.0747 145.972C98.0963 146.116 98.1336 146.256 98.1835 146.396L98.9947 148.631C99.4297 149.823 100.744 150.437 101.932 150.004L109.023 147.417L107.684 155.42C107.345 157.447 108.905 159.293 110.956 159.293H134.929V156.276C134.929 154.617 133.583 153.272 131.927 153.272Z" fill="#EA792E" />
	</g>
	<defs>
		<filter id="filter0_d" x="0" y="0" width="229" height="221" filterUnits="userSpaceOnUse" color-interpolation-filters="sRGB">
			<feFlood flood-opacity="0" result="BackgroundImageFix" />
			<feColorMatrix in="SourceAlpha" type="matrix" values="0 0 0 0 0 0 0 0 0 0 0 0 0 0 0 0 0 0 127 0" />
			<feOffset dy="4" />
			<feGaussianBlur stdDeviation="2" />
			<feColorMatrix type="matrix" values="0 0 0 0 0 0 0 0 0 0 0 0 0 0 0 0 0 0 0.25 0" />
			<feBlend mode="normal" in2="BackgroundImageFix" result="effect1_dropShadow" />
			<feBlend mode="normal" in="SourceGraphic" in2="effect1_dropShadow" result="shape" />
		</filter>
	</defs>
</svg>
