<svg width="138" height="58" viewBox="0 0 138 58" fill="none" xmlns="http://www.w3.org/2000/svg">
<g opacity="0.3" filter="url(#filter0_d)">
<path d="M36.3018 45.8846V53.3964H8.08023V45.8846H17.6008V21.2368C17.6008 20.6108 17.6121 19.9848 17.6348 19.3588C17.6574 18.7105 17.6914 18.0622 17.7368 17.4138L12.0925 22.0416C11.5938 22.4216 11.0951 22.6564 10.5964 22.7458C10.1203 22.8129 9.66699 22.8129 9.2363 22.7458C8.80561 22.6564 8.42025 22.5111 8.08023 22.3099C7.74021 22.0863 7.49086 21.8627 7.33219 21.6392L4 17.2797L19.4369 4.50302H28.1414V45.8846H36.3018Z" fill="#4E91F6"/>
<path d="M78.0955 28.9497C78.0955 33.2198 77.6308 36.9197 76.7014 40.0496C75.7721 43.1795 74.48 45.7729 72.8252 47.8296C71.1931 49.8864 69.2437 51.4178 66.9769 52.4239C64.7328 53.4299 62.296 53.9329 59.6665 53.9329C57.037 53.9329 54.6002 53.4299 52.3561 52.4239C50.1346 51.4178 48.2078 49.8864 46.5757 47.8296C44.9436 45.7729 43.6629 43.1795 42.7335 40.0496C41.8268 36.9197 41.3734 33.2198 41.3734 28.9497C41.3734 24.6796 41.8268 20.9797 42.7335 17.8498C43.6629 14.7199 44.9436 12.1265 46.5757 10.0698C48.2078 8.01297 50.1346 6.49273 52.3561 5.50905C54.6002 4.50302 57.037 4 59.6665 4C62.296 4 64.7328 4.50302 66.9769 5.50905C69.2437 6.49273 71.1931 8.01297 72.8252 10.0698C74.48 12.1265 75.7721 14.7199 76.7014 17.8498C77.6308 20.9797 78.0955 24.6796 78.0955 28.9497ZM67.2149 28.9497C67.2149 25.5739 66.9996 22.8129 66.5689 20.6667C66.1382 18.4981 65.5601 16.799 64.8348 15.5694C64.1321 14.3398 63.3273 13.5015 62.4206 13.0543C61.5139 12.5848 60.5959 12.3501 59.6665 12.3501C58.7371 12.3501 57.819 12.5848 56.9123 13.0543C56.0283 13.5015 55.2349 14.3398 54.5322 15.5694C53.8521 16.799 53.2968 18.4981 52.8661 20.6667C52.4581 22.8129 52.254 25.5739 52.254 28.9497C52.254 32.3479 52.4581 35.1201 52.8661 37.2663C53.2968 39.4125 53.8521 41.1116 54.5322 42.3635C55.2349 43.5931 56.0283 44.4427 56.9123 44.9121C57.819 45.3593 58.7371 45.5828 59.6665 45.5828C60.5959 45.5828 61.5139 45.3593 62.4206 44.9121C63.3273 44.4427 64.1321 43.5931 64.8348 42.3635C65.5601 41.1116 66.1382 39.4125 66.5689 37.2663C66.9996 35.1201 67.2149 32.3479 67.2149 28.9497Z" fill="#4E91F6"/>
<path d="M105.506 16.3742C105.506 18.1628 105.178 19.7948 104.52 21.2703C103.863 22.7458 102.99 24.0201 101.902 25.0932C100.814 26.144 99.5447 26.96 98.094 27.5412C96.6659 28.1225 95.1698 28.4131 93.6057 28.4131C91.8829 28.4131 90.2962 28.1225 88.8454 27.5412C87.4174 26.96 86.1706 26.144 85.1052 25.0932C84.0625 24.0201 83.2465 22.7458 82.6571 21.2703C82.0677 19.7948 81.773 18.1628 81.773 16.3742C81.773 14.5187 82.0677 12.8419 82.6571 11.3441C83.2465 9.82383 84.0625 8.52716 85.1052 7.45406C86.1706 6.38095 87.4174 5.55376 88.8454 4.9725C90.2962 4.36888 91.8829 4.06707 93.6057 4.06707C95.3285 4.06707 96.9152 4.36888 98.366 4.9725C99.8394 5.55376 101.097 6.38095 102.14 7.45406C103.206 8.52716 104.033 9.82383 104.622 11.3441C105.212 12.8419 105.506 14.5187 105.506 16.3742ZM97.4139 16.3742C97.4139 15.2341 97.3119 14.2951 97.1079 13.5573C96.9266 12.7972 96.6659 12.1936 96.3259 11.7465C95.9858 11.2993 95.5778 10.9864 95.1018 10.8075C94.6484 10.6287 94.1497 10.5392 93.6057 10.5392C93.0617 10.5392 92.563 10.6287 92.1096 10.8075C91.6563 10.9864 91.2709 11.2993 90.9536 11.7465C90.6362 12.1936 90.3869 12.7972 90.2055 13.5573C90.0242 14.2951 89.9335 15.2341 89.9335 16.3742C89.9335 17.4474 90.0242 18.3416 90.2055 19.057C90.3869 19.7724 90.6362 20.3425 90.9536 20.7673C91.2709 21.192 91.6563 21.4939 92.1096 21.6727C92.563 21.8516 93.0617 21.941 93.6057 21.941C94.1497 21.941 94.6484 21.8516 95.1018 21.6727C95.5778 21.4939 95.9858 21.192 96.3259 20.7673C96.6659 20.3425 96.9266 19.7724 97.1079 19.057C97.3119 18.3416 97.4139 17.4474 97.4139 16.3742ZM121.079 6.07914C121.419 5.69908 121.839 5.35256 122.337 5.03957C122.836 4.70423 123.527 4.53655 124.411 4.53655H132.096L94.7618 51.9209C94.4218 52.3456 93.9911 52.7033 93.4697 52.994C92.971 53.2622 92.359 53.3964 91.6336 53.3964H83.7451L121.079 6.07914ZM134 41.9276C134 43.7161 133.671 45.3593 133.014 46.8571C132.357 48.3327 131.484 49.607 130.396 50.6801C129.308 51.7308 128.038 52.5468 126.588 53.1281C125.16 53.7094 123.663 54 122.099 54C120.377 54 118.79 53.7094 117.339 53.1281C115.911 52.5468 114.664 51.7308 113.599 50.6801C112.556 49.607 111.74 48.3327 111.151 46.8571C110.561 45.3593 110.267 43.7161 110.267 41.9276C110.267 40.072 110.561 38.3953 111.151 36.8974C111.74 35.3772 112.556 34.0805 113.599 33.0074C114.664 31.9343 115.911 31.1071 117.339 30.5258C118.79 29.9222 120.377 29.6204 122.099 29.6204C123.822 29.6204 125.409 29.9222 126.86 30.5258C128.333 31.1071 129.591 31.9343 130.634 33.0074C131.699 34.0805 132.527 35.3772 133.116 36.8974C133.705 38.3953 134 40.072 134 41.9276ZM125.908 41.9276C125.908 40.8097 125.806 39.882 125.602 39.1442C125.42 38.3841 125.16 37.7805 124.819 37.3333C124.479 36.8862 124.071 36.5732 123.595 36.3944C123.142 36.2155 122.643 36.1261 122.099 36.1261C121.555 36.1261 121.057 36.2155 120.603 36.3944C120.15 36.5732 119.765 36.8862 119.447 37.3333C119.13 37.7805 118.88 38.3841 118.699 39.1442C118.518 39.882 118.427 40.8097 118.427 41.9276C118.427 43.0007 118.518 43.8949 118.699 44.6103C118.88 45.3257 119.13 45.8958 119.447 46.3206C119.765 46.7454 120.15 47.0472 120.603 47.226C121.057 47.4049 121.555 47.4943 122.099 47.4943C122.643 47.4943 123.142 47.4049 123.595 47.226C124.071 47.0472 124.479 46.7454 124.819 46.3206C125.16 45.8958 125.42 45.3257 125.602 44.6103C125.806 43.8949 125.908 43.0007 125.908 41.9276Z" fill="#4E91F6"/>
</g>
<defs>
<filter id="filter0_d" x="0" y="0" width="138" height="58" filterUnits="userSpaceOnUse" color-interpolation-filters="sRGB">
<feFlood flood-opacity="0" result="BackgroundImageFix"/>
<feColorMatrix in="SourceAlpha" type="matrix" values="0 0 0 0 0 0 0 0 0 0 0 0 0 0 0 0 0 0 127 0"/>
<feOffset/>
<feGaussianBlur stdDeviation="2"/>
<feColorMatrix type="matrix" values="0 0 0 0 0 0 0 0 0 0 0 0 0 0 0 0 0 0 0.25 0"/>
<feBlend mode="normal" in2="BackgroundImageFix" result="effect1_dropShadow"/>
<feBlend mode="normal" in="SourceGraphic" in2="effect1_dropShadow" result="shape"/>
</filter>
</defs>
</svg>
