<svg width="58" height="19" viewBox="0 0 58 19" fill="none" xmlns="http://www.w3.org/2000/svg">
<g opacity="0.4">
<path d="M14.5454 3.02953H8.98728V18.8191H5.55809V3.02953H0V0.180969H14.5454V3.02953Z" fill="#4E91F6"/>
<path d="M31.9363 18.8191H28.5199C28.2819 18.8191 28.0907 18.7589 27.9462 18.6386C27.8102 18.5183 27.6997 18.3808 27.6148 18.2261L23.3442 11.0725C23.2762 11.2873 23.1955 11.4721 23.102 11.6268L19.0099 18.2261C18.9079 18.3722 18.789 18.5097 18.653 18.6386C18.5255 18.7589 18.3555 18.8191 18.1431 18.8191H14.9433L21.0623 9.22934L15.1855 0.180969H18.602C18.84 0.180969 19.0099 0.215341 19.1119 0.284085C19.2224 0.344235 19.3244 0.447351 19.4179 0.593431L23.6119 7.42482C23.6969 7.21 23.7989 6.99517 23.9179 6.78035L27.7677 0.657878C27.8612 0.494612 27.9632 0.374311 28.0737 0.296975C28.1842 0.219638 28.3244 0.180969 28.4944 0.180969H31.7706L25.8428 9.08755L31.9363 18.8191Z" fill="#4E91F6"/>
<path d="M37.5046 18.8191H34.0626V0.180969H37.5046V18.8191Z" fill="#4E91F6"/>
<path d="M58 9.50002C58 10.8663 57.7748 12.1209 57.3244 13.2637C56.8739 14.4066 56.2408 15.3905 55.4249 16.2154C54.6091 17.0403 53.6275 17.6805 52.4802 18.1359C51.3328 18.5913 50.0581 18.8191 48.6558 18.8191H41.6317V0.180969H48.6558C50.0581 0.180969 51.3328 0.412979 52.4802 0.876998C53.6275 1.33242 54.6091 1.9726 55.4249 2.79752C56.2408 3.61385 56.8739 4.59345 57.3244 5.73631C57.7748 6.87917 58 8.13374 58 9.50002ZM54.4816 9.50002C54.4816 8.47746 54.3456 7.56231 54.0736 6.75457C53.8102 5.93824 53.4235 5.25081 52.9136 4.69226C52.4122 4.12513 51.8003 3.69119 51.0779 3.39043C50.364 3.08968 49.5566 2.9393 48.6558 2.9393H45.0736V16.0607H48.6558C49.5566 16.0607 50.364 15.9103 51.0779 15.6096C51.8003 15.3088 52.4122 14.8792 52.9136 14.3207C53.4235 13.7535 53.8102 13.0661 54.0736 12.2583C54.3456 11.442 54.4816 10.5226 54.4816 9.50002Z" fill="#4E91F6"/>
</g>
</svg>
