<svg width="61" height="48" viewBox="0 0 61 48" fill="none" xmlns="http://www.w3.org/2000/svg">
<g opacity="0.4">
<path d="M45.9265 30.4642C47.0503 30.4642 47.9614 29.5532 47.9614 28.4293C47.9614 27.3055 47.0503 26.3944 45.9265 26.3944C44.8026 26.3944 43.8916 27.3055 43.8916 28.4293C43.8916 29.5532 44.8026 30.4642 45.9265 30.4642Z" fill="#4E91F6"/>
<path d="M51.0135 13.1677H34.7345C34.1726 13.1677 33.717 13.6233 33.717 14.1852C33.717 14.747 34.1726 15.2026 34.7345 15.2026H49.9961V18.2549C49.9961 18.8168 50.4516 19.2724 51.0135 19.2724C51.5754 19.2724 52.031 18.8168 52.031 18.2549V14.1852C52.031 13.6232 51.5754 13.1677 51.0135 13.1677Z" fill="#4E91F6"/>
<path d="M20.4905 41.656H10.4392C9.32661 41.6591 8.25893 41.2169 7.47436 40.428C6.69106 39.6396 6.24987 38.5745 6.24631 37.4632V33.5165C6.24631 32.9546 5.79075 32.4991 5.22887 32.4991C4.66698 32.4991 4.21143 32.9546 4.21143 33.5165V37.4632C4.21193 40.9024 6.99998 43.6904 10.4392 43.6909H20.4905C21.0524 43.6909 21.5079 43.2354 21.5079 42.6735C21.5079 42.1116 21.0524 41.656 20.4905 41.656Z" fill="#4E91F6"/>
<path d="M55.6492 47.3534C55.9961 47.0064 55.9961 46.6595 55.9961 46.6595L56.1008 34.534H59.1531C59.715 34.534 60.1706 34.0784 60.1706 33.5165V23.3421C60.1706 22.7802 59.715 22.3247 59.1531 22.3247H56.1008V10.1154C56.1008 9.55352 55.6453 9.09796 55.0834 9.09796H51.0136V6.04564C51.0136 5.48375 50.5581 5.0282 49.9962 5.0282H41.8567V1.97588C41.8567 1.41399 41.4011 0.958435 40.8392 0.958435H5.31529C3.99045 0.962123 2.72056 1.48789 1.7807 2.42151L1.6057 2.59651C0.498596 3.6998 -0.0246228 5.25992 0.193491 6.8077C0.164876 6.89011 0.147325 6.97596 0.141602 7.06308V39.7951C0.141602 44.194 3.70722 47.7602 8.10612 47.7607H34.8048L54.9554 47.7003C54.9554 47.7003 55.3023 47.7003 55.6492 47.3534ZM58.1357 24.3596V32.4991H44.9812C42.7336 32.4991 40.9115 30.677 40.9115 28.4293C40.9115 26.1817 42.7336 24.3596 44.9812 24.3596H58.1357ZM3.04436 4.03619L3.21834 3.86221C3.77552 3.30745 4.52906 2.99522 5.31529 2.99332H39.8218V5.0282H7.26368C6.7018 5.0282 6.24624 5.48375 6.24624 6.04564C6.24624 6.60752 6.7018 7.06308 7.26368 7.06308H48.9787V9.09796H5.14232C3.50437 9.0977 2.17674 7.76969 2.17686 6.13174C2.17699 5.34576 2.48896 4.5921 3.04436 4.03619ZM34.8048 45.7258H8.10612C4.83124 45.7258 2.17648 43.071 2.17648 39.7962V39.7951V10.1429C3.03418 10.7809 4.07337 11.1277 5.14232 11.1328H54.0659V22.3247H44.9812C41.6097 22.3247 38.8766 25.0578 38.8766 28.4293C38.8766 31.8009 41.6097 34.534 44.9812 34.534H54.0659V45.7258C54.0659 45.7258 39.6908 45.7258 34.8048 45.7258Z" fill="#4E91F6"/>
<path d="M19.6913 17.2905V15.553C19.6913 14.7223 19.018 14.0488 18.1871 14.0488C17.3562 14.0488 16.6829 14.7223 16.6829 15.553V17.2905H14.1351C13.3044 17.2905 12.6309 17.964 12.6309 18.7948C12.6309 19.6255 13.3044 20.299 14.1351 20.299H14.657V26.6962V33.0934H14.1351C13.3044 33.0934 12.6309 33.7669 12.6309 34.5976C12.6309 35.4284 13.3044 36.1019 14.1351 36.1019H16.6829V37.8394C16.6829 38.6701 17.3562 39.3436 18.1871 39.3436C19.018 39.3436 19.6913 38.6701 19.6913 37.8394V36.1019H21.7479V37.8394C21.7479 38.6701 22.4212 39.3436 23.2522 39.3436C24.0831 39.3436 24.7564 38.6701 24.7564 37.8394V36.0895C27.5797 35.9083 29.8217 33.5549 29.8217 30.6866V30.6072C29.8217 29.0707 29.1774 27.6828 28.1459 26.6962C29.1772 25.7096 29.8217 24.3217 29.8217 22.7852V22.7058C29.8217 19.8375 27.5797 17.4843 24.7564 17.303V15.553C24.7564 14.7223 24.0831 14.0488 23.2522 14.0488C22.4212 14.0488 21.7479 14.7223 21.7479 15.553V17.2905H19.6913ZM26.8132 30.6072V30.6866C26.8132 32.0138 25.7335 33.0934 24.4064 33.0934H17.6654V28.2004H24.4064C25.7335 28.2004 26.8132 29.2801 26.8132 30.6072ZM26.8132 22.7058V22.7852C26.8132 24.1123 25.7335 25.192 24.4064 25.192H17.6654V20.299H24.4064C25.7335 20.299 26.8132 21.3786 26.8132 22.7058Z" fill="#4E91F6"/>
</g>
</svg>
