<svg width="61" height="48" viewBox="0 0 61 48" fill="none" xmlns="http://www.w3.org/2000/svg">
<g opacity="0.4">
<path d="M45.9265 30.4642C47.0503 30.4642 47.9614 29.5532 47.9614 28.4294C47.9614 27.3055 47.0503 26.3945 45.9265 26.3945C44.8026 26.3945 43.8916 27.3055 43.8916 28.4294C43.8916 29.5532 44.8026 30.4642 45.9265 30.4642Z" fill="#4E91F6"/>
<path d="M51.0135 13.1677H34.7345C34.1726 13.1677 33.717 13.6233 33.717 14.1852C33.717 14.747 34.1726 15.2026 34.7345 15.2026H49.9961V18.2549C49.9961 18.8168 50.4516 19.2724 51.0135 19.2724C51.5754 19.2724 52.031 18.8168 52.031 18.2549V14.1852C52.031 13.6232 51.5754 13.1677 51.0135 13.1677Z" fill="#4E91F6"/>
<path d="M20.4905 41.656H10.4392C9.32661 41.6591 8.25893 41.2169 7.47436 40.428C6.69106 39.6396 6.24987 38.5745 6.24631 37.4632V33.5165C6.24631 32.9546 5.79075 32.4991 5.22887 32.4991C4.66698 32.4991 4.21143 32.9546 4.21143 33.5165V37.4632C4.21193 40.9024 6.99998 43.6904 10.4392 43.6909H20.4905C21.0524 43.6909 21.5079 43.2354 21.5079 42.6735C21.5079 42.1116 21.0524 41.656 20.4905 41.656Z" fill="#4E91F6"/>
<path d="M55.6492 47.3534C55.9961 47.0064 55.9961 46.6595 55.9961 46.6595L56.1008 34.534H59.1531C59.715 34.534 60.1706 34.0784 60.1706 33.5165V23.3421C60.1706 22.7802 59.715 22.3247 59.1531 22.3247H56.1008V10.1154C56.1008 9.55352 55.6453 9.09796 55.0834 9.09796H51.0136V6.04564C51.0136 5.48375 50.5581 5.0282 49.9962 5.0282H41.8567V1.97588C41.8567 1.41399 41.4011 0.958435 40.8392 0.958435H5.31529C3.99045 0.962123 2.72056 1.48789 1.7807 2.42151L1.6057 2.59651C0.498596 3.6998 -0.0246228 5.25992 0.193491 6.8077C0.164876 6.89011 0.147325 6.97596 0.141602 7.06308V39.7951C0.141602 44.194 3.70722 47.7602 8.10612 47.7607H34.8048L54.9554 47.7003C54.9554 47.7003 55.3023 47.7003 55.6492 47.3534ZM58.1357 24.3596V32.4991H44.9812C42.7336 32.4991 40.9115 30.677 40.9115 28.4293C40.9115 26.1817 42.7336 24.3596 44.9812 24.3596H58.1357ZM3.04436 4.03619L3.21834 3.86221C3.77552 3.30745 4.52906 2.99522 5.31529 2.99332H39.8218V5.0282H7.26368C6.7018 5.0282 6.24624 5.48375 6.24624 6.04564C6.24624 6.60752 6.7018 7.06308 7.26368 7.06308H48.9787V9.09796H5.14232C3.50437 9.0977 2.17674 7.76969 2.17686 6.13174C2.17699 5.34576 2.48896 4.5921 3.04436 4.03619ZM34.8048 45.7258H8.10612C4.83124 45.7258 2.17648 43.071 2.17648 39.7962V39.7951V10.1429C3.03418 10.7809 4.07337 11.1277 5.14232 11.1328H54.0659V22.3247H44.9812C41.6097 22.3247 38.8766 25.0578 38.8766 28.4293C38.8766 31.8009 41.6097 34.534 44.9812 34.534H54.0659V45.7258C54.0659 45.7258 39.6908 45.7258 34.8048 45.7258Z" fill="#4E91F6"/>
</g>
<path opacity="0.4" d="M30.3908 32.6488C30.8469 32.6488 31.1414 33.1235 30.9305 33.5244L28.7485 37.6753C28.6449 37.8752 28.4359 38 28.2087 38H14.2574C13.5499 38 12.8554 37.7516 12.3425 37.2701C11.4652 36.4493 11.258 35.1974 11.7566 34.1694L15.3881 26.6845L10.2703 27.5878C10.0931 27.6198 9.94957 27.4451 10.017 27.2797L12.1859 22.0177C12.2158 21.9445 12.2813 21.8929 12.3587 21.88L18.2234 20.8451L21.921 13.225C21.9872 13.0873 22.1282 13 22.2829 13H27.4126C27.7071 13 27.903 13.3031 27.7745 13.5657L24.8056 19.6843L30.0863 18.7515C30.2441 18.7238 30.3727 18.88 30.3121 19.0276L28.1825 24.1956C28.1183 24.3511 27.9766 24.4643 27.8075 24.4938L21.9722 25.5231L18.5148 32.6488H30.3908Z" fill="#4E91F6" stroke="white" stroke-width="1.7"/>
</svg>
